<mxfile host="app.diagrams.net" modified="2024-03-29T05:28:23.878Z" agent="Mozilla/5.0 (Windows NT 10.0; Win64; x64) AppleWebKit/537.36 (KHTML, like Gecko) Chrome/120.0.0.0 YaBrowser/24.1.0.0 Safari/537.36" etag="WyiJOU99b3Uf6c0dCExR" version="24.0.2" type="google">
  <diagram name="Страница — 1" id="ZLtVTB5JuPkgl2HRmMUL">
    <mxGraphModel grid="1" page="1" gridSize="10" guides="1" tooltips="1" connect="1" arrows="1" fold="1" pageScale="1" pageWidth="827" pageHeight="1169" math="0" shadow="0">
      <root>
        <mxCell id="0" />
        <mxCell id="1" parent="0" />
        <mxCell id="OkjwpcAS32Sy62FzpL8h-1" value="Auth error" style="html=1;verticalAlign=bottom;endArrow=block;curved=0;rounded=0;" edge="1" parent="1" source="OkjwpcAS32Sy62FzpL8h-7" target="OkjwpcAS32Sy62FzpL8h-5">
          <mxGeometry width="80" relative="1" as="geometry">
            <mxPoint x="545.5" y="419.28999999999996" as="sourcePoint" />
            <mxPoint x="365.5" y="419.28999999999996" as="targetPoint" />
            <Array as="points">
              <mxPoint x="450" y="460" />
            </Array>
          </mxGeometry>
        </mxCell>
        <mxCell id="OkjwpcAS32Sy62FzpL8h-2" value="Validation error message" style="html=1;verticalAlign=bottom;endArrow=block;curved=0;rounded=0;" edge="1" parent="1" source="OkjwpcAS32Sy62FzpL8h-5" target="OkjwpcAS32Sy62FzpL8h-3">
          <mxGeometry width="80" relative="1" as="geometry">
            <mxPoint x="360" y="220" as="sourcePoint" />
            <mxPoint x="180" y="220" as="targetPoint" />
            <Array as="points">
              <mxPoint x="260" y="220" />
            </Array>
          </mxGeometry>
        </mxCell>
        <mxCell id="OkjwpcAS32Sy62FzpL8h-3" value="Пользователь" style="shape=umlLifeline;perimeter=lifelinePerimeter;whiteSpace=wrap;html=1;container=1;collapsible=0;recursiveResize=0;outlineConnect=0;rounded=1;shadow=0;comic=0;labelBackgroundColor=none;strokeWidth=1;fontFamily=Verdana;fontSize=12;align=center;" vertex="1" parent="1">
          <mxGeometry x="130" y="20" width="100" height="630" as="geometry" />
        </mxCell>
        <mxCell id="OkjwpcAS32Sy62FzpL8h-4" value="" style="html=1;points=[];perimeter=orthogonalPerimeter;rounded=0;shadow=0;comic=0;labelBackgroundColor=none;strokeWidth=1;fontFamily=Verdana;fontSize=12;align=center;" vertex="1" parent="OkjwpcAS32Sy62FzpL8h-3">
          <mxGeometry x="45" y="80" width="10" height="40" as="geometry" />
        </mxCell>
        <mxCell id="OkjwpcAS32Sy62FzpL8h-5" value="Клиент" style="shape=umlLifeline;perimeter=lifelinePerimeter;whiteSpace=wrap;html=1;container=1;collapsible=0;recursiveResize=0;outlineConnect=0;rounded=1;shadow=0;comic=0;labelBackgroundColor=none;strokeWidth=1;fontFamily=Verdana;fontSize=12;align=center;" vertex="1" parent="1">
          <mxGeometry x="310" y="20" width="100" height="630" as="geometry" />
        </mxCell>
        <mxCell id="OkjwpcAS32Sy62FzpL8h-6" value="" style="html=1;points=[];perimeter=orthogonalPerimeter;rounded=0;shadow=0;comic=0;labelBackgroundColor=none;strokeWidth=1;fontFamily=Verdana;fontSize=12;align=center;" vertex="1" parent="OkjwpcAS32Sy62FzpL8h-5">
          <mxGeometry x="45" y="120" width="10" height="160" as="geometry" />
        </mxCell>
        <mxCell id="OkjwpcAS32Sy62FzpL8h-7" value="Сервер" style="shape=umlLifeline;perimeter=lifelinePerimeter;whiteSpace=wrap;html=1;container=1;collapsible=0;recursiveResize=0;outlineConnect=0;rounded=1;shadow=0;comic=0;labelBackgroundColor=none;strokeWidth=1;fontFamily=Verdana;fontSize=12;align=center;" vertex="1" parent="1">
          <mxGeometry x="500" y="20" width="100" height="630" as="geometry" />
        </mxCell>
        <mxCell id="OkjwpcAS32Sy62FzpL8h-8" value="БД" style="shape=umlLifeline;perimeter=lifelinePerimeter;whiteSpace=wrap;html=1;container=1;collapsible=0;recursiveResize=0;outlineConnect=0;rounded=1;shadow=0;comic=0;labelBackgroundColor=none;strokeWidth=1;fontFamily=Verdana;fontSize=12;align=center;" vertex="1" parent="1">
          <mxGeometry x="700" y="20" width="100" height="630" as="geometry" />
        </mxCell>
        <mxCell id="OkjwpcAS32Sy62FzpL8h-9" value="" style="html=1;points=[];perimeter=orthogonalPerimeter;rounded=0;shadow=0;comic=0;labelBackgroundColor=none;strokeWidth=1;fontFamily=Verdana;fontSize=12;align=center;" vertex="1" parent="OkjwpcAS32Sy62FzpL8h-8">
          <mxGeometry x="45" y="320" width="10" height="40" as="geometry" />
        </mxCell>
        <mxCell id="OkjwpcAS32Sy62FzpL8h-10" value="Sign in page" style="html=1;verticalAlign=bottom;endArrow=block;curved=0;rounded=0;" edge="1" parent="1" source="OkjwpcAS32Sy62FzpL8h-5" target="OkjwpcAS32Sy62FzpL8h-3">
          <mxGeometry width="80" relative="1" as="geometry">
            <mxPoint x="440" y="220" as="sourcePoint" />
            <mxPoint x="520" y="220" as="targetPoint" />
            <Array as="points">
              <mxPoint x="260" y="100" />
            </Array>
          </mxGeometry>
        </mxCell>
        <mxCell id="OkjwpcAS32Sy62FzpL8h-11" value="Login, password" style="html=1;verticalAlign=bottom;endArrow=block;curved=0;rounded=0;" edge="1" parent="1" source="OkjwpcAS32Sy62FzpL8h-3" target="OkjwpcAS32Sy62FzpL8h-5">
          <mxGeometry width="80" relative="1" as="geometry">
            <mxPoint x="360" y="160" as="sourcePoint" />
            <mxPoint x="250" y="250" as="targetPoint" />
            <Array as="points">
              <mxPoint x="270" y="140" />
            </Array>
          </mxGeometry>
        </mxCell>
        <mxCell id="OkjwpcAS32Sy62FzpL8h-12" value="alt" style="shape=umlFrame;whiteSpace=wrap;html=1;pointerEvents=0;width=40;height=20;" vertex="1" parent="1">
          <mxGeometry x="40" y="180" width="860" height="470" as="geometry" />
        </mxCell>
        <mxCell id="OkjwpcAS32Sy62FzpL8h-13" value="invalid input" style="text;html=1;align=left;verticalAlign=middle;resizable=0;points=[];autosize=1;strokeColor=none;fillColor=none;fontSize=10;" vertex="1" parent="1">
          <mxGeometry x="45" y="200" width="80" height="30" as="geometry" />
        </mxCell>
        <mxCell id="OkjwpcAS32Sy62FzpL8h-14" value="" style="line;strokeWidth=1;fillColor=none;align=left;verticalAlign=middle;spacingTop=-1;spacingLeft=3;spacingRight=3;rotatable=0;labelPosition=right;points=[];portConstraint=eastwest;strokeColor=inherit;dashed=1;dashPattern=12 12;" vertex="1" parent="1">
          <mxGeometry x="40" y="250" width="860" height="20" as="geometry" />
        </mxCell>
        <mxCell id="OkjwpcAS32Sy62FzpL8h-15" value="Valid login and password" style="html=1;verticalAlign=bottom;endArrow=block;curved=0;rounded=0;" edge="1" parent="1" source="OkjwpcAS32Sy62FzpL8h-5" target="OkjwpcAS32Sy62FzpL8h-7">
          <mxGeometry width="80" relative="1" as="geometry">
            <mxPoint x="480.24" y="290" as="sourcePoint" />
            <mxPoint x="660.24" y="290" as="targetPoint" />
            <Array as="points">
              <mxPoint x="470" y="300" />
            </Array>
          </mxGeometry>
        </mxCell>
        <mxCell id="OkjwpcAS32Sy62FzpL8h-16" value="" style="html=1;points=[];perimeter=orthogonalPerimeter;rounded=0;shadow=0;comic=0;labelBackgroundColor=none;strokeWidth=1;fontFamily=Verdana;fontSize=12;align=center;" vertex="1" parent="1">
          <mxGeometry x="545" y="300" width="10" height="40" as="geometry" />
        </mxCell>
        <mxCell id="OkjwpcAS32Sy62FzpL8h-17" value="User data query" style="html=1;verticalAlign=bottom;endArrow=block;curved=0;rounded=0;" edge="1" parent="1" source="OkjwpcAS32Sy62FzpL8h-7" target="OkjwpcAS32Sy62FzpL8h-8">
          <mxGeometry width="80" relative="1" as="geometry">
            <mxPoint x="550.09" y="390" as="sourcePoint" />
            <mxPoint x="740.09" y="390" as="targetPoint" />
            <Array as="points">
              <mxPoint x="660" y="340" />
            </Array>
          </mxGeometry>
        </mxCell>
        <mxCell id="OkjwpcAS32Sy62FzpL8h-18" value="User data" style="html=1;verticalAlign=bottom;endArrow=block;curved=0;rounded=0;" edge="1" parent="1" source="OkjwpcAS32Sy62FzpL8h-8" target="OkjwpcAS32Sy62FzpL8h-7">
          <mxGeometry width="80" relative="1" as="geometry">
            <mxPoint x="730.3299999999999" y="410" as="sourcePoint" />
            <mxPoint x="550.3299999999999" y="410" as="targetPoint" />
            <Array as="points">
              <mxPoint x="650" y="380" />
            </Array>
          </mxGeometry>
        </mxCell>
        <mxCell id="OkjwpcAS32Sy62FzpL8h-19" value="" style="html=1;points=[];perimeter=orthogonalPerimeter;rounded=0;shadow=0;comic=0;labelBackgroundColor=none;strokeWidth=1;fontFamily=Verdana;fontSize=12;align=center;" vertex="1" parent="1">
          <mxGeometry x="545" y="380" width="10" height="190" as="geometry" />
        </mxCell>
        <mxCell id="OkjwpcAS32Sy62FzpL8h-20" value="valid input" style="text;html=1;align=left;verticalAlign=middle;resizable=0;points=[];autosize=1;strokeColor=none;fillColor=none;fontSize=10;" vertex="1" parent="1">
          <mxGeometry x="45" y="260" width="70" height="30" as="geometry" />
        </mxCell>
        <mxCell id="OkjwpcAS32Sy62FzpL8h-21" value="alt" style="shape=umlFrame;whiteSpace=wrap;html=1;pointerEvents=0;width=40;height=20;" vertex="1" parent="1">
          <mxGeometry x="50" y="420" width="840" height="220" as="geometry" />
        </mxCell>
        <mxCell id="OkjwpcAS32Sy62FzpL8h-22" value="wrong password&lt;br&gt;or login" style="text;html=1;align=left;verticalAlign=middle;resizable=0;points=[];autosize=1;strokeColor=none;fillColor=none;fontSize=10;" vertex="1" parent="1">
          <mxGeometry x="60" y="440" width="100" height="40" as="geometry" />
        </mxCell>
        <mxCell id="OkjwpcAS32Sy62FzpL8h-23" value="" style="line;strokeWidth=1;fillColor=none;align=left;verticalAlign=middle;spacingTop=-1;spacingLeft=3;spacingRight=3;rotatable=0;labelPosition=right;points=[];portConstraint=eastwest;strokeColor=inherit;dashed=1;dashPattern=12 12;" vertex="1" parent="1">
          <mxGeometry x="50" y="520" width="840" height="20" as="geometry" />
        </mxCell>
        <mxCell id="OkjwpcAS32Sy62FzpL8h-24" value="right password&lt;br&gt;and login" style="text;html=1;align=left;verticalAlign=middle;resizable=0;points=[];autosize=1;strokeColor=none;fillColor=none;fontSize=10;" vertex="1" parent="1">
          <mxGeometry x="60" y="530" width="90" height="40" as="geometry" />
        </mxCell>
        <mxCell id="OkjwpcAS32Sy62FzpL8h-25" value="" style="html=1;points=[];perimeter=orthogonalPerimeter;rounded=0;shadow=0;comic=0;labelBackgroundColor=none;strokeWidth=1;fontFamily=Verdana;fontSize=12;align=center;" vertex="1" parent="1">
          <mxGeometry x="355" y="460" width="10" height="40" as="geometry" />
        </mxCell>
        <mxCell id="OkjwpcAS32Sy62FzpL8h-26" value="Auth error message" style="html=1;verticalAlign=bottom;endArrow=block;curved=0;rounded=0;" edge="1" parent="1" source="OkjwpcAS32Sy62FzpL8h-5" target="OkjwpcAS32Sy62FzpL8h-3">
          <mxGeometry width="80" relative="1" as="geometry">
            <mxPoint x="390.21000000000004" y="500" as="sourcePoint" />
            <mxPoint x="200.21" y="500" as="targetPoint" />
            <Array as="points">
              <mxPoint x="290.21000000000004" y="500" />
            </Array>
          </mxGeometry>
        </mxCell>
        <mxCell id="OkjwpcAS32Sy62FzpL8h-27" value="Auth response" style="html=1;verticalAlign=bottom;endArrow=block;curved=0;rounded=0;" edge="1" parent="1" source="OkjwpcAS32Sy62FzpL8h-7" target="OkjwpcAS32Sy62FzpL8h-5">
          <mxGeometry width="80" relative="1" as="geometry">
            <mxPoint x="550.21" y="580" as="sourcePoint" />
            <mxPoint x="360.21" y="580" as="targetPoint" />
            <Array as="points">
              <mxPoint x="450" y="570" />
            </Array>
          </mxGeometry>
        </mxCell>
        <mxCell id="OkjwpcAS32Sy62FzpL8h-28" value="" style="html=1;points=[];perimeter=orthogonalPerimeter;rounded=0;shadow=0;comic=0;labelBackgroundColor=none;strokeWidth=1;fontFamily=Verdana;fontSize=12;align=center;" vertex="1" parent="1">
          <mxGeometry x="355" y="570" width="10" height="40" as="geometry" />
        </mxCell>
        <mxCell id="OkjwpcAS32Sy62FzpL8h-29" value="Success notification,&lt;br&gt;dashboard page" style="html=1;verticalAlign=bottom;endArrow=block;curved=0;rounded=0;" edge="1" parent="1" source="OkjwpcAS32Sy62FzpL8h-5" target="OkjwpcAS32Sy62FzpL8h-3">
          <mxGeometry width="80" relative="1" as="geometry">
            <mxPoint x="355" y="640" as="sourcePoint" />
            <mxPoint x="175" y="640" as="targetPoint" />
            <Array as="points">
              <mxPoint x="290" y="610" />
            </Array>
          </mxGeometry>
        </mxCell>
        <mxCell id="OkjwpcAS32Sy62FzpL8h-32" value="Пользователь" style="shape=umlLifeline;perimeter=lifelinePerimeter;whiteSpace=wrap;html=1;container=1;collapsible=0;recursiveResize=0;outlineConnect=0;rounded=1;shadow=0;comic=0;labelBackgroundColor=none;strokeWidth=1;fontFamily=Verdana;fontSize=12;align=center;" vertex="1" parent="1">
          <mxGeometry x="1100" y="5" width="100" height="630" as="geometry" />
        </mxCell>
        <mxCell id="OkjwpcAS32Sy62FzpL8h-34" value="Клиент" style="shape=umlLifeline;perimeter=lifelinePerimeter;whiteSpace=wrap;html=1;container=1;collapsible=0;recursiveResize=0;outlineConnect=0;rounded=1;shadow=0;comic=0;labelBackgroundColor=none;strokeWidth=1;fontFamily=Verdana;fontSize=12;align=center;" vertex="1" parent="1">
          <mxGeometry x="1280" y="5" width="100" height="630" as="geometry" />
        </mxCell>
        <mxCell id="OkjwpcAS32Sy62FzpL8h-36" value="Сервер" style="shape=umlLifeline;perimeter=lifelinePerimeter;whiteSpace=wrap;html=1;container=1;collapsible=0;recursiveResize=0;outlineConnect=0;rounded=1;shadow=0;comic=0;labelBackgroundColor=none;strokeWidth=1;fontFamily=Verdana;fontSize=12;align=center;" vertex="1" parent="1">
          <mxGeometry x="1470" y="5" width="100" height="630" as="geometry" />
        </mxCell>
        <mxCell id="OkjwpcAS32Sy62FzpL8h-41" value="alt" style="shape=umlFrame;whiteSpace=wrap;html=1;pointerEvents=0;width=40;height=20;" vertex="1" parent="1">
          <mxGeometry x="1010" y="165" width="590" height="470" as="geometry" />
        </mxCell>
        <mxCell id="OkjwpcAS32Sy62FzpL8h-42" value="invalid input" style="text;html=1;align=left;verticalAlign=middle;resizable=0;points=[];autosize=1;strokeColor=none;fillColor=none;fontSize=10;" vertex="1" parent="1">
          <mxGeometry x="1015" y="185" width="80" height="30" as="geometry" />
        </mxCell>
        <mxCell id="OkjwpcAS32Sy62FzpL8h-43" value="" style="line;strokeWidth=1;fillColor=none;align=left;verticalAlign=middle;spacingTop=-1;spacingLeft=3;spacingRight=3;rotatable=0;labelPosition=right;points=[];portConstraint=eastwest;strokeColor=inherit;dashed=1;dashPattern=12 12;" vertex="1" parent="1">
          <mxGeometry x="1010" y="235" width="560" height="20" as="geometry" />
        </mxCell>
        <mxCell id="OkjwpcAS32Sy62FzpL8h-49" value="valid input" style="text;html=1;align=left;verticalAlign=middle;resizable=0;points=[];autosize=1;strokeColor=none;fillColor=none;fontSize=10;" vertex="1" parent="1">
          <mxGeometry x="1015" y="245" width="70" height="30" as="geometry" />
        </mxCell>
        <mxCell id="OkjwpcAS32Sy62FzpL8h-50" value="alt" style="shape=umlFrame;whiteSpace=wrap;html=1;pointerEvents=0;width=40;height=20;" vertex="1" parent="1">
          <mxGeometry x="1020" y="405" width="570" height="220" as="geometry" />
        </mxCell>
        <mxCell id="OkjwpcAS32Sy62FzpL8h-51" value="есть патология" style="text;html=1;align=left;verticalAlign=middle;resizable=0;points=[];autosize=1;strokeColor=none;fillColor=none;fontSize=10;" vertex="1" parent="1">
          <mxGeometry x="1030" y="430" width="90" height="30" as="geometry" />
        </mxCell>
        <mxCell id="OkjwpcAS32Sy62FzpL8h-52" value="" style="line;strokeWidth=1;fillColor=none;align=left;verticalAlign=middle;spacingTop=-1;spacingLeft=3;spacingRight=3;rotatable=0;labelPosition=right;points=[];portConstraint=eastwest;strokeColor=inherit;dashed=1;dashPattern=12 12;" vertex="1" parent="1">
          <mxGeometry x="1020" y="505" width="570" height="20" as="geometry" />
        </mxCell>
        <mxCell id="OkjwpcAS32Sy62FzpL8h-53" value="нет патологии" style="text;html=1;align=left;verticalAlign=middle;resizable=0;points=[];autosize=1;strokeColor=none;fillColor=none;fontSize=10;" vertex="1" parent="1">
          <mxGeometry x="1030" y="520" width="90" height="30" as="geometry" />
        </mxCell>
        <mxCell id="OkjwpcAS32Sy62FzpL8h-61" value="" style="endArrow=classic;html=1;rounded=0;" edge="1" parent="1" source="OkjwpcAS32Sy62FzpL8h-34" target="OkjwpcAS32Sy62FzpL8h-32">
          <mxGeometry width="50" height="50" relative="1" as="geometry">
            <mxPoint x="910" y="240" as="sourcePoint" />
            <mxPoint x="960" y="190" as="targetPoint" />
            <Array as="points">
              <mxPoint x="1250" y="90" />
            </Array>
          </mxGeometry>
        </mxCell>
        <mxCell id="OkjwpcAS32Sy62FzpL8h-63" value="окно загрузки изображений ФЛГ" style="text;html=1;align=center;verticalAlign=middle;whiteSpace=wrap;rounded=0;" vertex="1" parent="1">
          <mxGeometry x="1150" y="60" width="150" height="30" as="geometry" />
        </mxCell>
        <mxCell id="OkjwpcAS32Sy62FzpL8h-64" value="" style="endArrow=classic;html=1;rounded=0;" edge="1" parent="1">
          <mxGeometry width="50" height="50" relative="1" as="geometry">
            <mxPoint x="1149.5" y="133" as="sourcePoint" />
            <mxPoint x="1329.5" y="133" as="targetPoint" />
            <Array as="points">
              <mxPoint x="1235" y="133" />
            </Array>
          </mxGeometry>
        </mxCell>
        <mxCell id="OkjwpcAS32Sy62FzpL8h-65" value="изображение ФЛГ" style="text;html=1;align=center;verticalAlign=middle;whiteSpace=wrap;rounded=0;" vertex="1" parent="1">
          <mxGeometry x="1160" y="100" width="150" height="30" as="geometry" />
        </mxCell>
        <mxCell id="OkjwpcAS32Sy62FzpL8h-67" value="" style="endArrow=classic;html=1;rounded=0;" edge="1" parent="1">
          <mxGeometry width="50" height="50" relative="1" as="geometry">
            <mxPoint x="1330" y="209" as="sourcePoint" />
            <mxPoint x="1150" y="209" as="targetPoint" />
            <Array as="points">
              <mxPoint x="1250" y="209" />
            </Array>
          </mxGeometry>
        </mxCell>
        <mxCell id="OkjwpcAS32Sy62FzpL8h-68" value="Сообщение о неправильном типе изображения" style="text;html=1;align=center;verticalAlign=middle;whiteSpace=wrap;rounded=0;" vertex="1" parent="1">
          <mxGeometry x="1150" y="180" width="170" height="30" as="geometry" />
        </mxCell>
        <mxCell id="OkjwpcAS32Sy62FzpL8h-69" value="" style="endArrow=classic;html=1;rounded=0;" edge="1" parent="1">
          <mxGeometry width="50" height="50" relative="1" as="geometry">
            <mxPoint x="1335.5" y="283" as="sourcePoint" />
            <mxPoint x="1515.5" y="283" as="targetPoint" />
            <Array as="points">
              <mxPoint x="1421" y="283" />
            </Array>
          </mxGeometry>
        </mxCell>
        <mxCell id="OkjwpcAS32Sy62FzpL8h-70" value="Изображение ФЛГ" style="text;html=1;align=center;verticalAlign=middle;whiteSpace=wrap;rounded=0;" vertex="1" parent="1">
          <mxGeometry x="1330" y="255" width="170" height="30" as="geometry" />
        </mxCell>
        <mxCell id="OkjwpcAS32Sy62FzpL8h-71" value="" style="endArrow=classic;html=1;rounded=0;" edge="1" parent="1">
          <mxGeometry width="50" height="50" relative="1" as="geometry">
            <mxPoint x="1509" y="370" as="sourcePoint" />
            <mxPoint x="1330" y="370" as="targetPoint" />
            <Array as="points">
              <mxPoint x="1430" y="370" />
            </Array>
          </mxGeometry>
        </mxCell>
        <mxCell id="OkjwpcAS32Sy62FzpL8h-72" value="обработанное изображение, класс" style="text;html=1;align=center;verticalAlign=middle;whiteSpace=wrap;rounded=0;" vertex="1" parent="1">
          <mxGeometry x="1336" y="336" width="170" height="30" as="geometry" />
        </mxCell>
        <mxCell id="OkjwpcAS32Sy62FzpL8h-73" value="" style="endArrow=classic;html=1;rounded=0;" edge="1" parent="1">
          <mxGeometry width="50" height="50" relative="1" as="geometry">
            <mxPoint x="1329" y="459.09" as="sourcePoint" />
            <mxPoint x="1150" y="459.09" as="targetPoint" />
            <Array as="points">
              <mxPoint x="1250" y="459.09" />
            </Array>
          </mxGeometry>
        </mxCell>
        <mxCell id="OkjwpcAS32Sy62FzpL8h-74" value="" style="endArrow=classic;html=1;rounded=0;" edge="1" parent="1">
          <mxGeometry width="50" height="50" relative="1" as="geometry">
            <mxPoint x="1329" y="550" as="sourcePoint" />
            <mxPoint x="1150" y="550" as="targetPoint" />
            <Array as="points">
              <mxPoint x="1250" y="550" />
            </Array>
          </mxGeometry>
        </mxCell>
        <mxCell id="OkjwpcAS32Sy62FzpL8h-75" value="Уведомление о патологии" style="text;html=1;align=center;verticalAlign=middle;whiteSpace=wrap;rounded=0;" vertex="1" parent="1">
          <mxGeometry x="1150" y="410" width="170" height="30" as="geometry" />
        </mxCell>
        <mxCell id="OkjwpcAS32Sy62FzpL8h-76" value="Уведомление об отсутствии патологии" style="text;html=1;align=center;verticalAlign=middle;whiteSpace=wrap;rounded=0;" vertex="1" parent="1">
          <mxGeometry x="1156" y="515" width="170" height="30" as="geometry" />
        </mxCell>
        <mxCell id="OkjwpcAS32Sy62FzpL8h-127" value="Пользователь" style="shape=umlLifeline;perimeter=lifelinePerimeter;whiteSpace=wrap;html=1;container=1;collapsible=0;recursiveResize=0;outlineConnect=0;rounded=1;shadow=0;comic=0;labelBackgroundColor=none;strokeWidth=1;fontFamily=Verdana;fontSize=12;align=center;" vertex="1" parent="1">
          <mxGeometry x="440" y="870" width="100" height="490" as="geometry" />
        </mxCell>
        <mxCell id="OkjwpcAS32Sy62FzpL8h-128" value="Клиент" style="shape=umlLifeline;perimeter=lifelinePerimeter;whiteSpace=wrap;html=1;container=1;collapsible=0;recursiveResize=0;outlineConnect=0;rounded=1;shadow=0;comic=0;labelBackgroundColor=none;strokeWidth=1;fontFamily=Verdana;fontSize=12;align=center;" vertex="1" parent="1">
          <mxGeometry x="620" y="870" width="100" height="490" as="geometry" />
        </mxCell>
        <mxCell id="OkjwpcAS32Sy62FzpL8h-129" value="Сервер" style="shape=umlLifeline;perimeter=lifelinePerimeter;whiteSpace=wrap;html=1;container=1;collapsible=0;recursiveResize=0;outlineConnect=0;rounded=1;shadow=0;comic=0;labelBackgroundColor=none;strokeWidth=1;fontFamily=Verdana;fontSize=12;align=center;" vertex="1" parent="1">
          <mxGeometry x="810" y="870" width="100" height="630" as="geometry" />
        </mxCell>
        <mxCell id="OkjwpcAS32Sy62FzpL8h-130" value="alt" style="shape=umlFrame;whiteSpace=wrap;html=1;pointerEvents=0;width=40;height=20;" vertex="1" parent="1">
          <mxGeometry x="350" y="1030" width="590" height="330" as="geometry" />
        </mxCell>
        <mxCell id="OkjwpcAS32Sy62FzpL8h-131" value="invalid input" style="text;html=1;align=left;verticalAlign=middle;resizable=0;points=[];autosize=1;strokeColor=none;fillColor=none;fontSize=10;" vertex="1" parent="1">
          <mxGeometry x="355" y="1050" width="80" height="30" as="geometry" />
        </mxCell>
        <mxCell id="OkjwpcAS32Sy62FzpL8h-132" value="" style="line;strokeWidth=1;fillColor=none;align=left;verticalAlign=middle;spacingTop=-1;spacingLeft=3;spacingRight=3;rotatable=0;labelPosition=right;points=[];portConstraint=eastwest;strokeColor=inherit;dashed=1;dashPattern=12 12;" vertex="1" parent="1">
          <mxGeometry x="350" y="1100" width="560" height="20" as="geometry" />
        </mxCell>
        <mxCell id="OkjwpcAS32Sy62FzpL8h-133" value="valid input" style="text;html=1;align=left;verticalAlign=middle;resizable=0;points=[];autosize=1;strokeColor=none;fillColor=none;fontSize=10;" vertex="1" parent="1">
          <mxGeometry x="355" y="1110" width="70" height="30" as="geometry" />
        </mxCell>
        <mxCell id="OkjwpcAS32Sy62FzpL8h-134" value="alt" style="shape=umlFrame;whiteSpace=wrap;html=1;pointerEvents=0;width=40;height=20;" vertex="1" parent="1">
          <mxGeometry x="360" y="1270" width="570" height="70" as="geometry" />
        </mxCell>
        <mxCell id="OkjwpcAS32Sy62FzpL8h-135" value="есть патология" style="text;html=1;align=left;verticalAlign=middle;resizable=0;points=[];autosize=1;strokeColor=none;fillColor=none;fontSize=10;" vertex="1" parent="1">
          <mxGeometry x="370" y="1295" width="90" height="30" as="geometry" />
        </mxCell>
        <mxCell id="OkjwpcAS32Sy62FzpL8h-138" value="" style="endArrow=classic;html=1;rounded=0;" edge="1" parent="1" source="OkjwpcAS32Sy62FzpL8h-128" target="OkjwpcAS32Sy62FzpL8h-127">
          <mxGeometry width="50" height="50" relative="1" as="geometry">
            <mxPoint x="250" y="1105" as="sourcePoint" />
            <mxPoint x="300" y="1055" as="targetPoint" />
            <Array as="points">
              <mxPoint x="590" y="955" />
            </Array>
          </mxGeometry>
        </mxCell>
        <mxCell id="OkjwpcAS32Sy62FzpL8h-139" value="окно загрузки изображений МРТ" style="text;html=1;align=center;verticalAlign=middle;whiteSpace=wrap;rounded=0;" vertex="1" parent="1">
          <mxGeometry x="490" y="925" width="150" height="30" as="geometry" />
        </mxCell>
        <mxCell id="OkjwpcAS32Sy62FzpL8h-140" value="" style="endArrow=classic;html=1;rounded=0;" edge="1" parent="1">
          <mxGeometry width="50" height="50" relative="1" as="geometry">
            <mxPoint x="489.5" y="998" as="sourcePoint" />
            <mxPoint x="669.5" y="998" as="targetPoint" />
            <Array as="points">
              <mxPoint x="575" y="998" />
            </Array>
          </mxGeometry>
        </mxCell>
        <mxCell id="OkjwpcAS32Sy62FzpL8h-141" value="изображение МРТ" style="text;html=1;align=center;verticalAlign=middle;whiteSpace=wrap;rounded=0;" vertex="1" parent="1">
          <mxGeometry x="500" y="965" width="150" height="30" as="geometry" />
        </mxCell>
        <mxCell id="OkjwpcAS32Sy62FzpL8h-142" value="" style="endArrow=classic;html=1;rounded=0;" edge="1" parent="1">
          <mxGeometry width="50" height="50" relative="1" as="geometry">
            <mxPoint x="670" y="1074" as="sourcePoint" />
            <mxPoint x="490" y="1074" as="targetPoint" />
            <Array as="points">
              <mxPoint x="590" y="1074" />
            </Array>
          </mxGeometry>
        </mxCell>
        <mxCell id="OkjwpcAS32Sy62FzpL8h-143" value="Сообщение о неправильном типе изображения" style="text;html=1;align=center;verticalAlign=middle;whiteSpace=wrap;rounded=0;" vertex="1" parent="1">
          <mxGeometry x="490" y="1045" width="170" height="30" as="geometry" />
        </mxCell>
        <mxCell id="OkjwpcAS32Sy62FzpL8h-144" value="" style="endArrow=classic;html=1;rounded=0;" edge="1" parent="1">
          <mxGeometry width="50" height="50" relative="1" as="geometry">
            <mxPoint x="675.5" y="1148" as="sourcePoint" />
            <mxPoint x="855.5" y="1148" as="targetPoint" />
            <Array as="points">
              <mxPoint x="761" y="1148" />
            </Array>
          </mxGeometry>
        </mxCell>
        <mxCell id="OkjwpcAS32Sy62FzpL8h-145" value="Изображение МРТ" style="text;html=1;align=center;verticalAlign=middle;whiteSpace=wrap;rounded=0;" vertex="1" parent="1">
          <mxGeometry x="670" y="1120" width="170" height="30" as="geometry" />
        </mxCell>
        <mxCell id="OkjwpcAS32Sy62FzpL8h-146" value="" style="endArrow=classic;html=1;rounded=0;" edge="1" parent="1">
          <mxGeometry width="50" height="50" relative="1" as="geometry">
            <mxPoint x="849" y="1235" as="sourcePoint" />
            <mxPoint x="670" y="1235" as="targetPoint" />
            <Array as="points">
              <mxPoint x="770" y="1235" />
            </Array>
          </mxGeometry>
        </mxCell>
        <mxCell id="OkjwpcAS32Sy62FzpL8h-147" value="Сегментированное изображение" style="text;html=1;align=center;verticalAlign=middle;whiteSpace=wrap;rounded=0;" vertex="1" parent="1">
          <mxGeometry x="676" y="1201" width="170" height="30" as="geometry" />
        </mxCell>
        <mxCell id="OkjwpcAS32Sy62FzpL8h-148" value="" style="endArrow=classic;html=1;rounded=0;" edge="1" parent="1">
          <mxGeometry width="50" height="50" relative="1" as="geometry">
            <mxPoint x="669" y="1324.09" as="sourcePoint" />
            <mxPoint x="490" y="1324.09" as="targetPoint" />
            <Array as="points">
              <mxPoint x="590" y="1324.09" />
            </Array>
          </mxGeometry>
        </mxCell>
        <mxCell id="OkjwpcAS32Sy62FzpL8h-150" value="Сегментированное изображение" style="text;html=1;align=center;verticalAlign=middle;whiteSpace=wrap;rounded=0;" vertex="1" parent="1">
          <mxGeometry x="490" y="1275" width="170" height="30" as="geometry" />
        </mxCell>
      </root>
    </mxGraphModel>
  </diagram>
</mxfile>
